<svg width="44" height="44" viewBox="0 0 44 44" fill="none" xmlns="http://www.w3.org/2000/svg">
<rect width="44" height="44" rx="10" fill="black" fill-opacity="0.5"/>
<path d="M25.2155 33.7825L35.9285 29.4973C36.2126 29.4973 36.4851 29.3844 36.686 29.1835C36.8869 28.9826 36.9998 28.7101 36.9998 28.426V11.2852C36.9998 11.0011 36.8869 10.7286 36.686 10.5277C36.4851 10.3268 36.2126 10.2139 35.9285 10.2139L25.2155 14.4991C24.9314 14.4991 24.6589 14.612 24.458 14.8129C24.2571 15.0138 24.1442 15.2863 24.1442 15.5704V32.7112C24.1442 32.9953 24.2571 33.2678 24.458 33.4687C24.6589 33.6696 24.9314 33.7825 25.2155 33.7825ZM8.07472 29.4973L18.7877 33.7825C19.0718 33.7825 19.3443 33.6696 19.5452 33.4687C19.7461 33.2678 19.859 32.9953 19.859 32.7112V15.5704C19.859 15.2863 19.7461 15.0138 19.5452 14.8129C19.3443 14.612 19.0718 14.4991 18.7877 14.4991L8.07472 10.2139C7.79059 10.2139 7.5181 10.3268 7.31719 10.5277C7.11629 10.7286 7.00342 11.0011 7.00342 11.2852V28.426C7.00342 28.7101 7.11629 28.9826 7.31719 29.1835C7.5181 29.3844 7.79059 29.4973 8.07472 29.4973ZM21.466 9.67825H22.5373V10.7495H21.466V9.67825ZM21.466 12.8921H22.5373V13.9634H21.466V12.8921ZM21.466 16.106H22.5373V17.1773H21.466V16.106ZM21.466 19.3199H22.5373V20.3912H21.466V19.3199ZM21.466 23.6051H22.5373V24.6764H21.466V23.6051ZM21.466 26.819H22.5373V27.8903H21.466V26.819ZM21.466 30.0329H22.5373V31.1042H21.466V30.0329ZM21.466 33.2468H22.5373V34.3181H21.466V33.2468ZM21.466 7H22.5373V8.0713H21.466V7ZM21.466 35.9251H22.5373V36.9964H21.466V35.9251Z" fill="white"/>
</svg>
