<svg width="81" height="80" viewBox="0 0 81 80" fill="none" xmlns="http://www.w3.org/2000/svg">
<path d="M8 57.5L33 67.5C33.663 67.5 34.2989 67.2366 34.7678 66.7678C35.2366 66.2989 35.5 65.663 35.5 65V25C35.5 24.337 35.2366 23.7011 34.7678 23.2322C34.2989 22.7634 33.663 22.5 33 22.5L8 12.5C7.33696 12.5 6.70107 12.7634 6.23223 13.2322C5.76339 13.7011 5.5 14.337 5.5 15V55C5.5 55.663 5.76339 56.2989 6.23223 56.7678C6.70107 57.2366 7.33696 57.5 8 57.5ZM39.25 11.25H41.75V13.75H39.25V11.25ZM39.25 18.75H41.75V21.25H39.25V18.75ZM39.25 26.25H41.75V28.75H39.25V26.25ZM39.25 33.75H41.75V36.25H39.25V33.75ZM39.25 43.75H41.75V46.25H39.25V43.75ZM39.25 51.25H41.75V53.75H39.25V51.25ZM39.25 58.75H41.75V61.25H39.25V58.75ZM39.25 66.25H41.75V68.75H39.25V66.25ZM39.25 5H41.75V7.5H39.25V5ZM39.25 72.5H41.75V75H39.25V72.5Z" fill="white"/>
</svg>
