<svg width="119" height="96" viewBox="0 0 119 96" fill="none" xmlns="http://www.w3.org/2000/svg">
<rect x="20" y="3" width="56" height="51" rx="11" fill="white" stroke="#B0B0B0" stroke-width="6"/>
<rect x="3" y="29" width="88" height="50" rx="11" fill="white" stroke="#B0B0B0" stroke-width="6"/>
<rect x="12" y="39" width="23" height="6" rx="3" fill="#316FFF"/>
<path d="M71 67C73.7614 67 76 69.2386 76 72V82C76 88.0751 71.0751 93 65 93H31C24.9249 93 20 88.0751 20 82V72C20 69.2386 22.2386 67 25 67H71Z" fill="white" stroke="#B0B0B0" stroke-width="6"/>
<rect x="83" y="53" width="36" height="36" rx="18" fill="#316FFF"/>
<path d="M92 72.24L96.4331 76.614C97.212 77.3825 98.4637 77.3825 99.2425 76.614L110 66" stroke="white" stroke-width="5" stroke-linecap="round"/>
</svg>
