<svg width="44" height="44" viewBox="0 0 44 44" fill="none" xmlns="http://www.w3.org/2000/svg">
<rect width="44" height="44" rx="10" fill="black" fill-opacity="0.5"/>
<path d="M8.0713 29.4973L18.7843 33.7825C19.0684 33.7825 19.3409 33.6696 19.5418 33.4687C19.7427 33.2678 19.8556 32.9953 19.8556 32.7112V15.5704C19.8556 15.2863 19.7427 15.0138 19.5418 14.8129C19.3409 14.612 19.0684 14.4991 18.7843 14.4991L8.0713 10.2139C7.78717 10.2139 7.51468 10.3268 7.31378 10.5277C7.11287 10.7286 7 11.0011 7 11.2852V28.426C7 28.7101 7.11287 28.9826 7.31378 29.1835C7.51468 29.3844 7.78717 29.4973 8.0713 29.4973ZM21.4625 9.67825H22.5338V10.7495H21.4625V9.67825ZM21.4625 12.8921H22.5338V13.9634H21.4625V12.8921ZM21.4625 16.106H22.5338V17.1773H21.4625V16.106ZM21.4625 19.3199H22.5338V20.3912H21.4625V19.3199ZM21.4625 23.6051H22.5338V24.6764H21.4625V23.6051ZM21.4625 26.819H22.5338V27.8903H21.4625V26.819ZM21.4625 30.0329H22.5338V31.1042H21.4625V30.0329ZM21.4625 33.2468H22.5338V34.3181H21.4625V33.2468ZM21.4625 7H22.5338V8.0713H21.4625V7ZM21.4625 35.9251H22.5338V36.9964H21.4625V35.9251Z" fill="white"/>
</svg>
