<svg width="260" height="200" viewBox="0 0 260 200" fill="none" xmlns="http://www.w3.org/2000/svg">
<rect width="100" height="100" transform="translate(80 50)" fill="white"/>
<circle cx="127" cy="94" r="32" stroke="#C37BFF" stroke-width="6"/>
<rect x="145" y="121.242" width="6" height="31.8322" rx="3" transform="rotate(-45 145 121.242)" fill="#C37BFF"/>
<mask id="mask0_4177_8603" style="mask-type:alpha" maskUnits="userSpaceOnUse" x="104" y="72" width="46" height="46">
<rect x="104" y="72" width="46" height="46" fill="#D9D9D9"/>
</mask>
<g mask="url(#mask0_4177_8603)">
<path d="M118.781 84.4333L124.148 77.4854C124.531 76.9743 124.986 76.599 125.514 76.3594C126.041 76.1198 126.592 76 127.167 76C127.742 76 128.293 76.1198 128.82 76.3594C129.347 76.599 129.802 76.9743 130.185 77.4854L135.552 84.4333L143.698 87.1646C144.528 87.4201 145.183 87.8913 145.662 88.5781C146.142 89.2649 146.381 90.0236 146.381 90.8542C146.381 91.2375 146.325 91.6208 146.214 92.0042C146.102 92.3875 145.918 92.7549 145.662 93.1063L140.392 100.581L140.583 108.44C140.615 109.558 140.248 110.5 139.481 111.267C138.715 112.033 137.82 112.417 136.798 112.417C136.734 112.417 136.383 112.369 135.744 112.273L127.167 109.877L118.59 112.273C118.43 112.337 118.254 112.377 118.062 112.393C117.871 112.409 117.695 112.417 117.535 112.417C116.513 112.417 115.619 112.033 114.852 111.267C114.085 110.5 113.718 109.558 113.75 108.44L113.942 100.533L108.719 93.1063C108.463 92.7549 108.28 92.3875 108.168 92.0042C108.056 91.6208 108 91.2375 108 90.8542C108 90.0556 108.232 89.3128 108.695 88.626C109.158 87.9392 109.805 87.4521 110.635 87.1646L118.781 84.4333Z" fill="#7711CA"/>
</g>
</svg>
