<svg width="28" height="28" viewBox="0 0 28 28" fill="none" xmlns="http://www.w3.org/2000/svg">
<path d="M5.13464 8.63366L7.93464 4.66699H10.8513L8.4013 8.16699H15.7513C17.7625 8.16699 19.6914 8.96595 21.1135 10.3881C22.5357 11.8102 23.3346 13.7391 23.3346 15.7503C23.3346 17.7615 22.5357 19.6904 21.1135 21.1126C19.6914 22.5347 17.7625 23.3337 15.7513 23.3337H10.5013L11.668 21.0003H15.7513C17.1437 21.0003 18.479 20.4472 19.4636 19.4626C20.4482 18.4781 21.0013 17.1427 21.0013 15.7503C21.0013 14.3579 20.4482 13.0226 19.4636 12.038C18.479 11.0534 17.1437 10.5003 15.7513 10.5003H8.4013L10.8513 14.0003H7.93464L5.13464 10.0337L4.66797 9.33366L5.13464 8.63366Z" fill="#1D1E20"/>
</svg>
