<svg width="100" height="100" viewBox="0 0 100 100" fill="none" xmlns="http://www.w3.org/2000/svg">
<g clip-path="url(#clip0_3816_11348)">
<rect width="100" height="100" fill="white"/>
<path d="M66.9302 42.9383C67.41 42.4585 68.2178 42.5872 68.4729 43.2159C70.7756 48.899 69.6241 55.6543 65.0154 60.2631C60.3857 64.8928 53.59 66.0345 47.8908 63.6903L22.6822 88.8989C20.318 91.2628 16.485 91.263 14.1209 88.8989C11.7571 86.5348 11.7571 82.7017 14.1209 80.3376L39.3296 55.129C36.9851 49.4297 38.1263 42.6335 42.756 38.0038C47.365 33.3949 54.1207 32.2438 59.8039 34.547C60.4328 34.8019 60.5613 35.6098 60.0815 36.0896L54.7423 41.4288C52.851 43.3201 52.8511 46.3862 54.7423 48.2775C56.6336 50.1688 59.6997 50.1688 61.591 48.2775L66.9302 42.9383Z" fill="#3ABA86"/>
<path d="M61.2275 10.834L63.7189 10.6266L63.7189 10.6263L61.2275 10.834ZM61.7607 17.2393L59.2694 17.4467C59.3581 18.5133 60.116 19.405 61.1544 19.6646L61.7607 17.2393ZM69.21 20.1143L68.0306 22.3186C68.9345 22.8022 70.0419 22.685 70.8246 22.0229L69.21 20.1143ZM74.667 15.498L76.2816 17.4067L76.2818 17.4065L74.667 15.498ZM77.373 15.6104L79.1408 13.8426L79.1407 13.8424L77.373 15.6104ZM85.9004 24.1377L87.6685 22.3702L87.6682 22.3699L85.9004 24.1377ZM86.0127 26.8438L87.921 28.4588L87.9212 28.4586L86.0127 26.8438ZM81.7158 31.9209L79.8075 30.3059C79.111 31.1289 79.0206 32.3058 79.5833 33.2256L81.7158 31.9209ZM85.1895 39.7637L82.7901 40.4658C83.0805 41.4581 83.9516 42.1692 84.9819 42.255L85.1895 39.7637ZM91.9307 40.3252L92.1383 37.8338L92.1382 37.8338L91.9307 40.3252ZM93.7646 42.3184L96.2646 42.3184L96.2646 42.318L93.7646 42.3184ZM93.7646 54.3779L96.2646 54.3779V54.3779H93.7646ZM91.9307 56.3711L92.1381 58.8625L92.1383 58.8625L91.9307 56.3711ZM85.5273 56.9043L85.3199 54.4129C84.2533 54.5017 83.3616 55.2596 83.102 56.2979L85.5273 56.9043ZM82.6289 64.3994L80.4264 63.2166C79.9407 64.1211 80.0573 65.2306 80.7205 66.0144L82.6289 64.3994ZM86.8691 69.4102L88.7777 67.7954L88.7775 67.7952L86.8691 69.4102ZM86.7568 72.1162L88.5246 73.884L88.5249 73.8837L86.7568 72.1162ZM78.2295 80.6436L79.9968 82.4118L79.9973 82.4113L78.2295 80.6436ZM75.5234 80.7559L73.9085 82.6643L73.9087 82.6644L75.5234 80.7559ZM70.8887 76.834L72.5036 74.9255C71.6795 74.2282 70.5008 74.1386 69.5808 74.7034L70.8887 76.834ZM61.7607 80.6709L61.1543 78.2456C60.116 78.5052 59.3581 79.397 59.2694 80.4635L61.7607 80.6709ZM61.2275 87.0771L63.7189 87.2854L63.7189 87.2845L61.2275 87.0771ZM47.1758 88.9102L47.1753 91.4102H47.1758V88.9102ZM45.1826 87.0771L42.6913 87.285L42.6913 87.2853L45.1826 87.0771ZM44.6201 80.334L47.1115 80.1262C47.0255 79.0959 46.3143 78.2248 45.3221 77.9346L44.6201 80.334ZM39.4697 78.3369L37.702 76.5691C37.1309 77.1402 36.8709 77.952 37.0038 78.7485C37.1368 79.5451 37.6464 80.2284 38.372 80.583L39.4697 78.3369ZM48.8691 68.9375L49.4674 66.5101C48.6177 66.3007 47.7202 66.5509 47.1014 67.1697L48.8691 68.9375ZM53.8105 69.5371L53.8105 72.0371H53.8105V69.5371ZM74.3936 48.9541L76.8936 48.9541L76.8936 48.9541L74.3936 48.9541ZM53.8105 28.3721L53.8105 25.8721L53.8105 25.8721L53.8105 28.3721ZM33.2285 48.9541L30.7285 48.9541V48.9541H33.2285ZM33.9326 54.3037L35.7004 56.0715C36.3322 55.4396 36.5788 54.5186 36.3471 53.6556L33.9326 54.3037ZM24.5977 63.6387L22.3647 64.763C22.7256 65.4796 23.4085 65.9795 24.2007 66.1069C24.9928 66.2344 25.7981 65.9738 26.3654 65.4064L24.5977 63.6387ZM22.0957 56.9053L24.5211 56.2991C24.2616 55.2607 23.3697 54.5027 22.3031 54.4139L22.0957 56.9053ZM15.6895 56.3721L15.4814 58.8634L15.4821 58.8635L15.6895 56.3721ZM13.8555 54.3789L11.3555 54.3789L11.3555 54.3789L13.8555 54.3789ZM13.8555 42.3193L11.3555 42.319V42.3193H13.8555ZM15.6895 40.3262L15.4816 37.8348L15.4814 37.8348L15.6895 40.3262ZM22.4326 39.7637L22.6404 42.255C23.6707 42.1691 24.5418 41.4578 24.8321 40.4655L22.4326 39.7637ZM25.9062 31.9199L28.0388 33.2246C28.6015 32.3049 28.5111 31.128 27.8146 30.305L25.9062 31.9199ZM21.6113 26.8447L19.7026 28.4593L19.703 28.4597L21.6113 26.8447ZM21.7246 24.1387L19.9567 22.371L19.9564 22.3714L21.7246 24.1387ZM30.251 15.6113L28.4832 13.8436L28.4831 13.8437L30.251 15.6113ZM32.957 15.499L34.5718 13.5905L34.5715 13.5902L32.957 15.499ZM38.4121 20.1143L36.7974 22.0228C37.58 22.685 38.6876 22.8022 39.5915 22.3186L38.4121 20.1143ZM44.6201 17.5771L45.3222 19.9765C46.3144 19.6862 47.0255 18.8152 47.1115 17.785L44.6201 17.5771ZM45.1826 10.834L47.674 11.0418L47.674 11.0416L45.1826 10.834ZM47.1758 9L47.1758 6.5L47.1753 6.5L47.1758 9ZM59.2344 9V11.5C58.9743 11.5 58.7578 11.3007 58.7362 11.0416L61.2275 10.834L63.7189 10.6263C63.5245 8.29412 61.5748 6.5 59.2344 6.5V9ZM61.2275 10.834L58.7362 11.0414L59.2694 17.4467L61.7607 17.2393L64.2521 17.0319L63.7189 10.6266L61.2275 10.834ZM61.7607 17.2393L61.1544 19.6646C63.5745 20.2697 65.8797 21.1679 68.0306 22.3186L69.21 20.1143L70.3893 17.9099C67.8822 16.5686 65.1926 15.5203 62.3671 14.8139L61.7607 17.2393ZM69.21 20.1143L70.8246 22.0229L76.2816 17.4067L74.667 15.498L73.0524 13.5894L67.5954 18.2056L69.21 20.1143ZM74.667 15.498L76.2818 17.4065C76.0836 17.5743 75.7895 17.5623 75.6054 17.3783L77.373 15.6104L79.1407 13.8424C77.4855 12.1876 74.8384 12.0781 73.0521 13.5896L74.667 15.498ZM77.373 15.6104L75.6053 17.3781L84.1326 25.9055L85.9004 24.1377L87.6682 22.3699L79.1408 13.8426L77.373 15.6104ZM85.9004 24.1377L84.1323 25.9052C83.9485 25.7212 83.9363 25.4274 84.1042 25.2289L86.0127 26.8438L87.9212 28.4586C89.4327 26.6722 89.3229 24.0252 87.6685 22.3702L85.9004 24.1377ZM86.0127 26.8438L84.1044 25.2287L79.8075 30.3059L81.7158 31.9209L83.6241 33.5359L87.921 28.4588L86.0127 26.8438ZM81.7158 31.9209L79.5833 33.2256C80.9526 35.4638 82.0374 37.8939 82.7901 40.4658L85.1895 39.7637L87.5888 39.0615C86.7107 36.0609 85.4451 33.2262 83.8484 30.6162L81.7158 31.9209ZM85.1895 39.7637L84.9819 42.255L91.7231 42.8166L91.9307 40.3252L92.1382 37.8338L85.397 37.2723L85.1895 39.7637ZM91.9307 40.3252L91.723 42.8166C91.4635 42.7949 91.2647 42.5783 91.2646 42.3187L93.7646 42.3184L96.2646 42.318C96.2643 39.9783 94.4708 38.0282 92.1383 37.8338L91.9307 40.3252ZM93.7646 42.3184H91.2646V54.3779H93.7646H96.2646V42.3184H93.7646ZM93.7646 54.3779L91.2646 54.3779C91.2647 54.1179 91.4639 53.9013 91.7231 53.8797L91.9307 56.3711L92.1383 58.8625C94.4706 58.6681 96.2646 56.7183 96.2646 54.3779L93.7646 54.3779ZM91.9307 56.3711L91.7232 53.8797L85.3199 54.4129L85.5273 56.9043L85.7348 59.3957L92.1381 58.8625L91.9307 56.3711ZM85.5273 56.9043L83.102 56.2979C82.4928 58.7344 81.5876 61.0543 80.4264 63.2166L82.6289 64.3994L84.8314 65.5822C86.1856 63.0606 87.2418 60.3539 87.9527 57.5107L85.5273 56.9043ZM82.6289 64.3994L80.7205 66.0144L84.9607 71.0251L86.8691 69.4102L88.7775 67.7952L84.5373 62.7845L82.6289 64.3994ZM86.8691 69.4102L84.9606 71.0249C84.7928 70.8266 84.8048 70.5328 84.9888 70.3487L86.7568 72.1162L88.5249 73.8837C90.1794 72.2286 90.2889 69.5817 88.7777 67.7954L86.8691 69.4102ZM86.7568 72.1162L84.9891 70.3484L76.4617 78.8758L78.2295 80.6436L79.9973 82.4113L88.5246 73.884L86.7568 72.1162ZM78.2295 80.6436L76.4622 78.8753C76.646 78.6916 76.9396 78.6793 77.1382 78.8473L75.5234 80.7559L73.9087 82.6644C75.6951 84.1759 78.3419 84.0658 79.9968 82.4118L78.2295 80.6436ZM75.5234 80.7559L77.1383 78.8474L72.5036 74.9255L70.8887 76.834L69.2738 78.7424L73.9085 82.6643L75.5234 80.7559ZM70.8887 76.834L69.5808 74.7034C67.0017 76.2866 64.1673 77.4922 61.1543 78.2456L61.7607 80.6709L62.3672 83.0962C65.8831 82.2171 69.1897 80.8104 72.1966 78.9646L70.8887 76.834ZM61.7607 80.6709L59.2694 80.4635L58.7362 86.8698L61.2275 87.0771L63.7189 87.2845L64.2521 80.8783L61.7607 80.6709ZM61.2275 87.0771L58.7362 86.8689C58.758 86.609 58.9752 86.4102 59.2344 86.4102V88.9102V91.4102C61.5735 91.4102 63.5239 89.618 63.7189 87.2854L61.2275 87.0771ZM59.2344 88.9102V86.4102H47.1758V88.9102V91.4102H59.2344V88.9102ZM47.1758 88.9102L47.1763 86.4102C47.4347 86.4102 47.6522 86.6083 47.6739 86.869L45.1826 87.0771L42.6913 87.2853C42.8863 89.6184 44.8372 91.4097 47.1753 91.4102L47.1758 88.9102ZM45.1826 87.0771L47.674 86.8693L47.1115 80.1262L44.6201 80.334L42.1288 80.5418L42.6913 87.285L45.1826 87.0771ZM44.6201 80.334L45.3221 77.9346C43.6758 77.4529 42.0869 76.8334 40.5675 76.0908L39.4697 78.3369L38.372 80.583C40.1414 81.4478 41.9947 82.1707 43.9182 82.7334L44.6201 80.334ZM39.4697 78.3369L41.2375 80.1047L50.6369 70.7053L48.8691 68.9375L47.1014 67.1697L37.702 76.5691L39.4697 78.3369ZM48.8691 68.9375L48.2708 71.3649C50.0458 71.8024 51.9013 72.0371 53.8105 72.0371L53.8105 69.5371L53.8106 67.0371C52.3126 67.0371 50.8587 66.8531 49.4674 66.5101L48.8691 68.9375ZM53.8105 69.5371V72.0371C66.5588 72.0371 76.8936 61.7024 76.8936 48.9541H74.3936H71.8936C71.8936 58.941 63.7974 67.0371 53.8105 67.0371V69.5371ZM74.3936 48.9541L76.8936 48.9541C76.8934 36.2058 66.5586 25.8721 53.8105 25.8721V28.3721V30.8721C63.7974 30.8721 71.8934 38.9675 71.8936 48.9541L74.3936 48.9541ZM53.8105 28.3721L53.8105 25.8721C41.0626 25.8724 30.7287 36.2061 30.7285 48.9541L33.2285 48.9541L35.7285 48.9541C35.7287 38.9676 43.824 30.8723 53.8106 30.8721L53.8105 28.3721ZM33.2285 48.9541H30.7285C30.7285 51.0273 31.0044 53.0382 31.5181 54.9518L33.9326 54.3037L36.3471 53.6556C35.9449 52.1572 35.7285 50.582 35.7285 48.9541H33.2285ZM33.9326 54.3037L32.1649 52.5359L22.8299 61.8709L24.5977 63.6387L26.3654 65.4064L35.7004 56.0715L33.9326 54.3037ZM24.5977 63.6387L26.8306 62.5144C25.8439 60.5548 25.0645 58.4735 24.5211 56.2991L22.0957 56.9053L19.6703 57.5115C20.3045 60.0491 21.214 62.4776 22.3647 64.763L24.5977 63.6387ZM22.0957 56.9053L22.3031 54.4139L15.8968 53.8807L15.6895 56.3721L15.4821 58.8635L21.8883 59.3967L22.0957 56.9053ZM15.6895 56.3721L15.8976 53.8807C16.1561 53.9023 16.3555 54.1183 16.3555 54.3789L13.8555 54.3789L11.3555 54.3789C11.3555 56.7196 13.1501 58.6687 15.4814 58.8634L15.6895 56.3721ZM13.8555 54.3789H16.3555V42.3193H13.8555H11.3555V54.3789H13.8555ZM13.8555 42.3193L16.3555 42.3197C16.3554 42.5799 16.1564 42.7959 15.8976 42.8175L15.6895 40.3262L15.4814 37.8348C13.1499 38.0296 11.3558 39.979 11.3555 42.319L13.8555 42.3193ZM15.6895 40.3262L15.8973 42.8175L22.6404 42.255L22.4326 39.7637L22.2248 37.2723L15.4816 37.8348L15.6895 40.3262ZM22.4326 39.7637L24.8321 40.4655C25.5844 37.8934 26.6694 35.463 28.0388 33.2246L25.9062 31.9199L23.7737 30.6152C22.1768 33.2254 20.911 36.0606 20.0332 39.0618L22.4326 39.7637ZM25.9062 31.9199L27.8146 30.305L23.5197 25.2298L21.6113 26.8447L19.703 28.4597L23.9979 33.5349L25.9062 31.9199ZM21.6113 26.8447L23.52 25.2302C23.6893 25.4302 23.6752 25.7235 23.4928 25.906L21.7246 24.1387L19.9564 22.3714C18.3039 24.0247 18.1903 26.6714 19.7026 28.4593L21.6113 26.8447ZM21.7246 24.1387L23.4925 25.9063L32.0188 17.379L30.251 15.6113L28.4831 13.8437L19.9567 22.371L21.7246 24.1387ZM30.251 15.6113L32.0187 17.3791C31.834 17.5638 31.5401 17.5749 31.3426 17.4078L32.957 15.499L34.5715 13.5902C32.7858 12.0799 30.1388 12.188 28.4832 13.8436L30.251 15.6113ZM32.957 15.499L31.3423 17.4076L36.7974 22.0228L38.4121 20.1143L40.0268 18.2057L34.5718 13.5905L32.957 15.499ZM38.4121 20.1143L39.5915 22.3186C41.3995 21.3512 43.3179 20.563 45.3222 19.9765L44.6201 17.5771L43.9181 15.1777C41.5799 15.8619 39.3418 16.7815 37.2327 17.9099L38.4121 20.1143ZM44.6201 17.5771L47.1115 17.785L47.674 11.0418L45.1826 10.834L42.6913 10.6262L42.1288 17.3693L44.6201 17.5771ZM45.1826 10.834L47.674 11.0416C47.6523 11.3013 47.4357 11.4999 47.1763 11.5L47.1758 9L47.1753 6.5C44.8359 6.50046 42.8856 8.29374 42.6913 10.6264L45.1826 10.834ZM47.1758 9V11.5H59.2344V9V6.5H47.1758V9Z" fill="#84D8B6"/>
</g>
<defs>
<clipPath id="clip0_3816_11348">
<rect width="100" height="100" fill="white"/>
</clipPath>
</defs>
</svg>
