<svg width="260" height="200" viewBox="0 0 260 200" fill="none" xmlns="http://www.w3.org/2000/svg">
<g clip-path="url(#clip0_4177_8493)">
<rect width="100" height="100" transform="translate(80 50)" fill="white"/>
<path d="M146.93 92.9403C147.41 92.4605 148.218 92.5891 148.473 93.2179C150.776 98.901 149.624 105.656 145.015 110.265C140.386 114.895 133.59 116.036 127.891 113.692L102.683 138.9C100.319 141.264 96.4857 141.264 94.1216 138.9C91.7577 136.536 91.7576 132.703 94.1216 130.339L119.33 105.131C116.985 99.4317 118.126 92.6355 122.756 88.0057C127.365 83.3969 134.121 82.2458 139.804 84.5489C140.433 84.8038 140.561 85.6117 140.081 86.0916L134.742 91.4308C132.851 93.3221 132.851 96.3882 134.742 98.2795C136.634 100.171 139.7 100.171 141.591 98.2795L146.93 92.9403Z" fill="#3ABA86"/>
<path d="M141.228 60.834L138.736 61.0416L138.736 61.0417L141.228 60.834ZM141.762 67.2402L139.27 67.448C139.359 68.5144 140.117 69.406 141.155 69.6656L141.762 67.2402ZM149.211 70.1143L148.032 72.3186C148.936 72.8022 150.043 72.685 150.826 72.0228L149.211 70.1143ZM154.668 65.4971L153.054 63.588L153.053 63.5886L154.668 65.4971ZM157.374 65.6104L159.142 63.8425L159.142 63.8424L157.374 65.6104ZM165.901 74.1367L167.669 72.3691L167.669 72.3689L165.901 74.1367ZM166.014 76.8428L167.922 78.4578L167.923 78.4569L166.014 76.8428ZM161.717 81.9199L159.808 80.3049C159.112 81.1279 159.022 82.3049 159.584 83.2246L161.717 81.9199ZM165.189 89.7637L162.79 90.4656C163.08 91.4579 163.952 92.1692 164.982 92.255L165.189 89.7637ZM171.931 90.3252L172.138 87.8338L172.138 87.8338L171.931 90.3252ZM173.765 92.3184H176.265V92.318L173.765 92.3184ZM173.765 104.378L176.265 104.378V104.378H173.765ZM171.931 106.371L172.138 108.862L172.138 108.862L171.931 106.371ZM165.525 106.904L165.318 104.413C164.251 104.502 163.36 105.26 163.1 106.298L165.525 106.904ZM162.629 114.398L160.426 113.216C159.941 114.12 160.057 115.23 160.721 116.013L162.629 114.398ZM166.87 119.41L168.779 117.796L168.778 117.795L166.87 119.41ZM166.757 122.116L168.525 123.884L168.525 123.884L166.757 122.116ZM158.23 130.644L159.998 132.411L159.998 132.411L158.23 130.644ZM155.524 130.756L153.91 132.664L153.91 132.665L155.524 130.756ZM150.89 126.834L152.505 124.926C151.68 124.228 150.502 124.139 149.582 124.703L150.89 126.834ZM141.761 130.672L141.154 128.247C140.116 128.506 139.358 129.398 139.269 130.464L141.761 130.672ZM141.228 137.077L143.719 137.285L143.719 137.285L141.228 137.077ZM139.234 138.91V136.41V138.91ZM127.176 138.91L127.175 141.41H127.176V138.91ZM125.183 137.077L122.691 137.285L122.691 137.285L125.183 137.077ZM124.62 130.334L127.111 130.126C127.026 129.096 126.314 128.225 125.322 127.935L124.62 130.334ZM119.47 128.337L117.702 126.569C117.131 127.14 116.871 127.952 117.004 128.748C117.137 129.545 117.646 130.228 118.372 130.583L119.47 128.337ZM128.869 118.938L129.467 116.51C128.618 116.301 127.72 116.551 127.101 117.17L128.869 118.938ZM133.811 119.537L133.81 122.037H133.811V119.537ZM154.394 98.9541H156.894V98.9541L154.394 98.9541ZM133.811 78.3721V75.8721H133.81L133.811 78.3721ZM113.229 98.9541L110.729 98.9541V98.9541H113.229ZM113.933 104.304L115.7 106.071C116.332 105.44 116.579 104.519 116.347 103.656L113.933 104.304ZM104.599 113.638L102.366 114.762C102.727 115.479 103.409 115.979 104.202 116.106C104.994 116.233 105.799 115.973 106.366 115.405L104.599 113.638ZM102.097 106.905L104.522 106.299C104.262 105.261 103.371 104.503 102.304 104.414L102.097 106.905ZM95.6895 106.372L95.4814 108.863L95.4821 108.863L95.6895 106.372ZM93.8555 104.379H91.3555V104.379L93.8555 104.379ZM93.8555 92.3193L91.3555 92.319V92.3193H93.8555ZM95.6895 90.3262L95.4816 87.8348L95.4814 87.8348L95.6895 90.3262ZM102.433 89.7637L102.64 92.255C103.671 92.1691 104.542 91.4578 104.832 90.4655L102.433 89.7637ZM105.907 81.9199L108.04 83.2246C108.602 82.3049 108.512 81.128 107.816 80.305L105.907 81.9199ZM101.612 76.8447L99.7037 78.4594L99.7039 78.4597L101.612 76.8447ZM101.725 74.1387L99.9568 72.3709L99.9562 72.3715L101.725 74.1387ZM110.252 65.6113L108.484 63.8433L108.484 63.8436L110.252 65.6113ZM112.958 65.498L114.573 63.5896L114.572 63.5891L112.958 65.498ZM118.412 70.1133L116.797 72.0217C117.58 72.684 118.688 72.8013 119.591 72.3176L118.412 70.1133ZM124.62 67.5762L125.322 69.9757C126.314 69.6854 127.026 68.8143 127.111 67.784L124.62 67.5762ZM125.183 60.834L127.674 61.0418L127.674 61.0416L125.183 60.834ZM127.176 59V56.5H127.175L127.176 59ZM139.234 59V61.5C138.974 61.5 138.758 61.3007 138.736 61.0416L141.228 60.834L143.719 60.6263C143.525 58.2941 141.575 56.5 139.234 56.5V59ZM141.228 60.834L138.736 61.0417L139.27 67.448L141.762 67.2402L144.253 67.0325L143.719 60.6262L141.228 60.834ZM141.762 67.2402L141.155 69.6656C143.576 70.2708 145.881 71.1682 148.032 72.3186L149.211 70.1143L150.39 67.9099C147.883 66.5684 145.193 65.5211 142.368 64.8149L141.762 67.2402ZM149.211 70.1143L150.826 72.0228L156.283 67.4056L154.668 65.4971L153.053 63.5886L147.596 68.2057L149.211 70.1143ZM154.668 65.4971L156.282 67.4061C156.083 67.5745 155.79 67.5615 155.606 67.3783L157.374 65.6104L159.142 63.8424C157.488 62.1888 154.841 62.0769 153.054 63.588L154.668 65.4971ZM157.374 65.6104L155.606 67.3782L164.134 75.9046L165.901 74.1367L167.669 72.3689L159.142 63.8425L157.374 65.6104ZM165.901 74.1367L164.133 75.9043C163.949 75.7195 163.938 75.4261 164.105 75.2286L166.014 76.8428L167.923 78.4569C169.432 76.6715 169.325 74.0247 167.669 72.3691L165.901 74.1367ZM166.014 76.8428L164.105 75.2277L159.808 80.3049L161.717 81.9199L163.625 83.535L167.922 78.4578L166.014 76.8428ZM161.717 81.9199L159.584 83.2246C160.953 85.4625 162.037 87.893 162.79 90.4656L165.189 89.7637L167.589 89.0618C166.711 86.0613 165.447 83.2258 163.849 80.6152L161.717 81.9199ZM165.189 89.7637L164.982 92.255L171.723 92.8166L171.931 90.3252L172.138 87.8338L165.397 87.2723L165.189 89.7637ZM171.931 90.3252L171.723 92.8166C171.463 92.7949 171.265 92.5783 171.265 92.3187L173.765 92.3184L176.265 92.318C176.264 89.9783 174.471 88.0282 172.138 87.8338L171.931 90.3252ZM173.765 92.3184H171.265V104.378H173.765H176.265V92.3184H173.765ZM173.765 104.378L171.265 104.378C171.265 104.118 171.464 103.901 171.723 103.88L171.931 106.371L172.138 108.862C174.471 108.668 176.265 106.718 176.265 104.378L173.765 104.378ZM171.931 106.371L171.723 103.88L165.318 104.413L165.525 106.904L165.733 109.396L172.138 108.862L171.931 106.371ZM165.525 106.904L163.1 106.298C162.491 108.735 161.587 111.054 160.426 113.216L162.629 114.398L164.831 115.581C166.186 113.059 167.24 110.353 167.951 107.511L165.525 106.904ZM162.629 114.398L160.721 116.013L164.962 121.025L166.87 119.41L168.778 117.795L164.537 112.783L162.629 114.398ZM166.87 119.41L164.961 121.025C164.792 120.825 164.806 120.532 164.989 120.349L166.757 122.116L168.525 123.884C170.178 122.23 170.291 119.583 168.779 117.796L166.87 119.41ZM166.757 122.116L164.989 120.349L156.463 128.876L158.23 130.644L159.998 132.411L168.525 123.884L166.757 122.116ZM158.23 130.644L156.463 128.876C156.648 128.691 156.941 128.68 157.139 128.847L155.524 130.756L153.91 132.665C155.696 134.175 158.343 134.067 159.998 132.411L158.23 130.644ZM155.524 130.756L157.139 128.847L152.505 124.926L150.89 126.834L149.275 128.742L153.91 132.664L155.524 130.756ZM150.89 126.834L149.582 124.703C147.002 126.287 144.167 127.493 141.154 128.247L141.761 130.672L142.367 133.097C145.884 132.218 149.191 130.81 152.198 128.965L150.89 126.834ZM141.761 130.672L139.269 130.464L138.736 136.87L141.228 137.077L143.719 137.285L144.252 130.879L141.761 130.672ZM141.228 137.077L138.736 136.869C138.758 136.609 138.975 136.41 139.234 136.41V138.91V141.41C141.574 141.41 143.524 139.618 143.719 137.285L141.228 137.077ZM139.234 138.91V136.41H127.176V138.91V141.41H139.234V138.91ZM127.176 138.91L127.176 136.41C127.435 136.41 127.652 136.608 127.674 136.869L125.183 137.077L122.691 137.285C122.886 139.618 124.837 141.41 127.175 141.41L127.176 138.91ZM125.183 137.077L127.674 136.869L127.111 130.126L124.62 130.334L122.129 130.542L122.691 137.285L125.183 137.077ZM124.62 130.334L125.322 127.935C123.676 127.453 122.087 126.833 120.568 126.091L119.47 128.337L118.372 130.583C120.141 131.448 121.995 132.171 123.918 132.733L124.62 130.334ZM119.47 128.337L121.237 130.105L130.637 120.705L128.869 118.938L127.101 117.17L117.702 126.569L119.47 128.337ZM128.869 118.938L128.271 121.365C130.046 121.802 131.901 122.037 133.81 122.037L133.811 119.537L133.811 117.037C132.313 117.037 130.859 116.853 129.467 116.51L128.869 118.938ZM133.811 119.537V122.037C146.559 122.037 156.894 111.702 156.894 98.9541H154.394H151.894C151.894 108.941 143.797 117.037 133.811 117.037V119.537ZM154.394 98.9541L156.894 98.9541C156.893 86.2058 146.559 75.8721 133.811 75.8721V78.3721V80.8721C143.797 80.8721 151.893 88.9675 151.894 98.9541L154.394 98.9541ZM133.811 78.3721L133.81 75.8721C121.063 75.8724 110.729 86.2061 110.729 98.9541L113.229 98.9541L115.729 98.9541C115.729 88.9676 123.824 80.8723 133.811 80.8721L133.811 78.3721ZM113.229 98.9541H110.729C110.729 101.027 111.004 103.038 111.518 104.952L113.933 104.304L116.347 103.656C115.945 102.157 115.729 100.582 115.729 98.9541H113.229ZM113.933 104.304L112.165 102.536L102.831 111.87L104.599 113.638L106.366 115.405L115.7 106.071L113.933 104.304ZM104.599 113.638L106.832 112.513C105.845 110.554 105.065 108.473 104.522 106.299L102.097 106.905L99.6713 107.512C100.306 110.049 101.215 112.477 102.366 114.762L104.599 113.638ZM102.097 106.905L102.304 104.414L95.8968 103.881L95.6895 106.372L95.4821 108.863L101.889 109.397L102.097 106.905ZM95.6895 106.372L95.8976 103.881C96.1561 103.902 96.3555 104.118 96.3555 104.379L93.8555 104.379L91.3555 104.379C91.3555 106.72 93.1501 108.669 95.4814 108.863L95.6895 106.372ZM93.8555 104.379H96.3555V92.3193H93.8555H91.3555V104.379H93.8555ZM93.8555 92.3193L96.3555 92.3197C96.3554 92.5799 96.1564 92.7959 95.8976 92.8175L95.6895 90.3262L95.4814 87.8348C93.1499 88.0296 91.3558 89.979 91.3555 92.319L93.8555 92.3193ZM95.6895 90.3262L95.8973 92.8175L102.64 92.255L102.433 89.7637L102.225 87.2723L95.4816 87.8348L95.6895 90.3262ZM102.433 89.7637L104.832 90.4655C105.584 87.8939 106.67 85.4635 108.04 83.2246L105.907 81.9199L103.775 80.6152C102.178 83.225 100.911 86.0601 100.033 89.0618L102.433 89.7637ZM105.907 81.9199L107.816 80.305L103.521 75.2298L101.612 76.8447L99.7039 78.4597L103.999 83.5349L105.907 81.9199ZM101.612 76.8447L103.521 75.23C103.689 75.4287 103.677 75.7221 103.493 75.9058L101.725 74.1387L99.9562 72.3715C98.3026 74.0262 98.1924 76.673 99.7037 78.4594L101.612 76.8447ZM101.725 74.1387L103.492 75.9064L112.02 67.3791L110.252 65.6113L108.484 63.8436L99.9568 72.3709L101.725 74.1387ZM110.252 65.6113L112.019 67.3794C111.836 67.5623 111.543 67.5757 111.344 67.407L112.958 65.498L114.572 63.5891C112.785 62.0776 110.138 62.19 108.484 63.8433L110.252 65.6113ZM112.958 65.498L111.343 67.4065L116.797 72.0217L118.412 70.1133L120.027 68.2049L114.573 63.5896L112.958 65.498ZM118.412 70.1133L119.591 72.3176C121.4 71.3502 123.318 70.5618 125.322 69.9757L124.62 67.5762L123.918 65.1767C121.58 65.8607 119.342 66.7806 117.233 67.909L118.412 70.1133ZM124.62 67.5762L127.111 67.784L127.674 61.0418L125.183 60.834L122.691 60.6261L122.129 67.3683L124.62 67.5762ZM125.183 60.834L127.674 61.0416C127.652 61.3013 127.436 61.4999 127.176 61.5L127.176 59L127.175 56.5C124.836 56.5005 122.886 58.2937 122.691 60.6264L125.183 60.834ZM127.176 59V61.5H139.234V59V56.5H127.176V59Z" fill="#84D8B6"/>
</g>
<defs>
<clipPath id="clip0_4177_8493">
<rect width="100" height="100" fill="white" transform="translate(80 50)"/>
</clipPath>
</defs>
</svg>
